<?xml version="1.0" encoding="UTF-8" standalone="no"?>
<svg
   xmlns:dc="http://purl.org/dc/elements/1.1/"
   xmlns:cc="http://creativecommons.org/ns#"
   xmlns:rdf="http://www.w3.org/1999/02/22-rdf-syntax-ns#"
   xmlns:svg="http://www.w3.org/2000/svg"
   xmlns="http://www.w3.org/2000/svg"
   viewBox="0 0 2000 324"
   height="324"
   width="2000"
   id="svg1672"
   version="1.1">
  <metadata
     id="metadata1678">
    <rdf:RDF>
      <cc:Work
         rdf:about="">
        <dc:format>image/svg+xml</dc:format>
        <dc:type
           rdf:resource="http://purl.org/dc/dcmitype/StillImage" />
        <dc:title></dc:title>
      </cc:Work>
    </rdf:RDF>
  </metadata>
  <defs
     id="defs1676" />
  <path
     id="path1682"
     d="m 466.89587,324.6338 c -30.31392,-6.36959 -52.80721,-17.95691 -70.51217,-36.32403 -12.04431,-12.49476 -16.07638,-21.2485 -20.61647,-44.75901 -1.32275,-6.84976 -1.60218,-24.64255 -1.94346,-123.75 L 373.42519,4.0507649 h 36.0501 36.05009 l 0.0206,95.7499951 c 0.0216,100.50932 0.59251,119.59599 3.97066,132.75 5.24889,20.4384 15.77107,32.82302 33.50874,39.43982 18.37773,6.85556 52.66728,7.95299 75.5,2.41634 18.40232,-4.46232 31.84158,-15.90639 38.13733,-32.47546 5.37543,-14.14697 5.18712,-9.99277 5.79658,-127.8807 L 603.02538,4.5507649 h 36.5 36.5 l -0.016,108.9999951 c -0.0147,99.59772 -0.17242,110.1568 -1.82899,122.41073 -3.44905,25.51314 -9.10165,39.29984 -21.40452,52.20569 -13.41196,14.0693 -31.72745,25.17813 -52.25045,31.69129 -20.82459,6.60888 -19.9212,6.52491 -73.5,6.83253 -48.07683,0.27604 -49.20968,0.23729 -60.12951,-2.0572 z M 3.5253809,165.05076 V 4.0507649 h 36.5000001 36.5 V 69.550765 135.05076 h 81.492759 81.49276 l 0.25724,-65.249995 0.25724,-65.2500001 36.25,-0.26248 36.25,-0.26247 V 165.03829 326.05076 h -36.5 -36.5 v -67 -67 h -81.5 -81.499999 v 67 67 h -36.5 -36.5000001 z m 687.9910991,160.25 c -0.005,-0.4125 32.95761,-72.86155 73.25,-160.99789 l 73.2589,-160.2478951 38.86515,0.24789 38.86515,0.2479 73.39253,158.9999951 c 40.36589,87.45 73.64439,159.7875 73.95229,160.75 0.5267,1.64704 -1.8194,1.75 -39.8783,1.75 h -40.43794 l -13.53814,-32.25 c -7.44598,-17.7375 -14.59173,-34.83687 -15.87945,-37.99861 l -2.34129,-5.7486 -76,-0.001 -76,-0.001 -15.40932,37.99961 -15.40932,37.9996 h -38.34068 c -21.08737,0 -38.34468,-0.3375 -38.34958,-0.75 z m 235.0089,-133.78578 c 0,-0.29467 -11.29879,-26.95717 -25.10842,-59.25 C 887.60733,99.97216 875.87127,72.425765 875.33683,71.050765 l -0.9717,-2.5 -1.29937,2.5 c -1.61065,3.09892 -49.54038,119.593515 -49.54038,120.409335 0,0.32486 23.175,0.59066 51.5,0.59066 28.325,0 51.5,-0.2411 51.5,-0.53578 z M 1077.2715,165.77167 C 1045.5112,77.618165 1019.5254,5.1681649 1019.5254,4.7716649 c 0,-0.39649 17.5362,-0.7209 38.9693,-0.7209 h 38.9692 l 10.034,30.7500001 c 5.5186,16.9125 23.6161,72.478875 40.2165,123.480835 16.6005,51.00196 30.4152,92.49831 30.6994,92.21412 0.2842,-0.28419 15.666,-55.73807 34.1817,-123.23084 l 33.6651,-122.7141151 43.0861,-0.26059 43.0862,-0.26059 5.9819,18.7605901 c 3.29,10.31832 20.685,65.33559 38.6555,122.260585 17.9706,56.925 33.0274,104.14739 33.4597,104.93865 0.5332,0.97586 1.3304,-0.47172 2.4782,-4.5 0.9307,-3.26626 17.7499,-58.81365 37.3762,-123.43865 l 35.684,-117.4999951 37.2285,-0.26217 c 29.4674,-0.20752 37.2178,9.5e-4 37.1771,1 -0.028,0.69419 -24.0402,73.0371701 -53.36,160.7621651 l -53.3088,159.5 -45.0981,0.26016 -45.0982,0.26016 -1.4292,-4.76016 c -9.9112,-33.00914 -72.0423,-232.956075 -72.562,-233.514965 -0.3861,-0.41515 -14.5847,50.659845 -31.5526,113.499995 -16.9679,62.84014 -31.5184,116.61731 -32.3345,119.50481 l -1.4839,5.25 h -44.6145 -44.6146 z m 625.8704,159.18157 c -57.8352,-6.09998 -99.6323,-37.89616 -116.5889,-88.69234 -6.368,-19.07627 -9.0076,-38.329 -9.0194,-65.78646 -0.01,-22.38459 1.1834,-36.22672 4.6044,-53.42368 11.5591,-58.105985 43.2805,-92.238785 98.4025,-105.883045 24.6833,-6.1098201 28.3802,-6.3423601 108.7349,-6.8397501 l 73.25,-0.4534 v 28.0881001 28.0881 l -63.25,0.008 c -36.1889,0.005 -67.1006,0.44281 -72.25,1.02401 -27.9312,3.15253 -47.6345,15.22938 -57.4572,35.21745 -4.6241,9.409435 -7.8189,20.952815 -8.7181,31.500335 l -0.6182,7.25 h 101.1468 101.1467 v 28 28 h -101.6503 -101.6503 l 0.6529,9.96282 c 2.499,38.13379 16.9663,57.81187 48.672,66.2027 8.347,2.20901 9.58,2.2482 81.2257,2.58155 l 72.75,0.33848 v 27.95723 27.95722 l -75.75,-0.13302 c -41.6625,-0.0731 -79.2976,-0.50718 -83.6335,-0.9645 z M 1927.5254,165.05076 V 4.0507649 h 37.5 37.5 v 160.9999951 161 h -37.5 -37.5 z"
     style="fill:#000000" />
</svg>
